<?xml version="1.0" encoding="utf-8"?>
<!-- Generator: Adobe Illustrator 28.0.0, SVG Export Plug-In . SVG Version: 6.00 Build 0)  -->
<svg version="1.1" id="Layer_1" xmlns="http://www.w3.org/2000/svg" xmlns:xlink="http://www.w3.org/1999/xlink" x="0px" y="0px"
	 viewBox="0 0 1820 386" style="enable-background:new 0 0 1820 386;" xml:space="preserve">
<style type="text/css">
	.st0{fill:#FFFFFF;}
	.st1{fill:#036534;}
	.st2{fill:#35509E;}
	.st3{fill:#314DA2;}
	.st4{fill:#4D4E4E;}
	.st5{fill:#354F9F;}
	.st6{fill:#036434;}
</style>
<rect class="st0" width="1820" height="386"/>
<g>
	<g>
		<g>
			<g>
				<polygon class="st1" points="114.8,80.7 132.3,80.7 132.3,56.2 162.1,56.2 162.1,38.7 114.8,38.7 				"/>
				<polygon class="st1" points="486,279.2 459,279.2 459,296.8 503.5,296.8 503.5,252.9 486,252.9 				"/>
				<path class="st1" d="M410.4,157.6c-1.5-8.2-4.4-16.4-8.9-24c-8.7-15.1-21.9-26-36.8-32.1l-0.2,0.2l-26.5,15.3L410.4,157.6z"/>
				<path class="st1" d="M310.2,211.8l-26.3-14.8l-12.5,12.3c4,6.9,9,12.9,14.7,18c6.5,5.8,13.9,10.4,21.8,13.6l0.2-0.2l26.5-15.3
					L310.2,211.8z"/>
				<path class="st1" d="M410.7,160.9l-26.5-15.3l0.9,83c6.4-5.4,12-12,16.4-19.7c8.7-15.1,11.6-31.9,9.4-48L410.7,160.9z"/>
				<path class="st1" d="M382.5,199.9l-71.4,42.3c6.4,2.3,13.2,3.7,20.3,4.1h4v0.2c0.3,0,0.7,0,1,0c17.4,0,33.5-5.9,46.2-15.9l0-0.2
					L382.5,199.9L382.5,199.9z"/>
				<polygon class="st1" points="288.3,192.7 285.7,195.3 288.4,196.9 				"/>
				<path class="st1" d="M330.5,118.6l31.1-18.4c-7.9-2.8-16.4-4.3-25.2-4.3c-4.7,0-9.3,0.5-13.8,1.3c-1.6,0.3-3.1,0.6-4.6,1
					c4.8,6.4,7.8,14,8.7,22.8L330.5,118.6z"/>
			</g>
			<g>
				<g>
					<polygon class="st1" points="114.8,80.7 132.3,80.7 132.3,56.2 162.1,56.2 162.1,38.7 114.8,38.7 					"/>
					<polygon class="st1" points="486,279.2 459,279.2 459,296.8 503.5,296.8 503.5,252.9 486,252.9 					"/>
					<path class="st1" d="M410.4,157.6c-1.5-8.2-4.4-16.4-8.9-24c-8.7-15.1-21.9-26-36.8-32.1l-0.2,0.2l-26.5,15.3L410.4,157.6z"/>
					<path class="st1" d="M310.2,211.8l-26.3-14.8l-12.5,12.3c4,6.9,9,12.9,14.7,18c6.5,5.8,13.9,10.4,21.8,13.6l0.2-0.2l26.5-15.3
						L310.2,211.8z"/>
					<path class="st1" d="M410.7,160.9l-26.5-15.3l0.9,83c6.4-5.4,12-12,16.4-19.7c8.7-15.1,11.6-31.9,9.4-48L410.7,160.9z"/>
					<path class="st1" d="M382.5,199.9l-71.4,42.3c6.4,2.3,13.2,3.7,20.3,4.1h4v0.2c0.3,0,0.7,0,1,0c17.4,0,33.5-5.9,46.2-15.9
						l0-0.2L382.5,199.9L382.5,199.9z"/>
					<polygon class="st1" points="288.3,192.7 285.7,195.3 288.4,196.9 					"/>
					<path class="st1" d="M330.5,118.6l31.1-18.4c-7.9-2.8-16.4-4.3-25.2-4.3c-4.7,0-9.3,0.5-13.8,1.3c-1.6,0.3-3.1,0.6-4.6,1
						c4.8,6.4,7.8,14,8.7,22.8L330.5,118.6z"/>
				</g>
				<g>
					<polygon class="st2" points="458.5,56.2 486,56.2 486,80.8 503.5,80.8 503.5,38.7 458.5,38.7 					"/>
					<polygon class="st2" points="161.6,279.2 132.3,279.2 132.3,252.3 114.8,252.3 114.8,296.8 161.6,296.8 					"/>
					<path class="st2" d="M428.5,171.2c0-50.9-41.3-92.2-92.2-92.2c-9.7,0-19.1,1.5-27.9,4.3c-1.9,0.6-3.8,1.3-5.7,2
						c-0.5-0.3-1-0.6-1.5-0.8c-9.6-4.9-21.6-7.5-35.6-7.5c-28.2,0-51.1,9.5-65.4,26.4l13.4,11.6c12.1-14,28.7-20.6,50.4-20.6
						c6.8,0,12.8,0.8,18,2.2c3.4,0.9,6.5,2.2,9.2,3.7c2.8,1.6,5.3,3.4,7.4,5.6c5.7,5.8,8.6,13.6,8.6,23c0,1.1,0,2.3-0.1,3.4
						c-0.2,2.5-0.5,5-1.2,7.6c-1.7,6.6-5.3,13.8-12.4,22.5c-1.7,2.1-3.6,4.2-5.6,6.5c-1.7,1.8-3.5,3.7-5.5,5.7l-12.1,11.9l-1.9,1.9
						l-4.4,4.3l-6.9,6.7l-6.4,6.3l-45,44.1v13.4h89.8h35.3c1.8,0.1,3.6,0.2,5.4,0.2c4.3,0,8.5-0.3,12.7-0.9
						C393.9,256.3,428.5,217.8,428.5,171.2z M325.8,139.1c3.3-1.1,6.9-1.7,10.5-1.7c0.4,0,0.7,0,1.1,0.1c8.9,0.3,16.9,4,22.8,9.8
						c6.1,6.1,9.9,14.6,9.9,23.9c0,9.3-3.8,17.8-9.9,23.9s-14.6,9.9-23.9,9.9c-6.8,0-13.2-2-18.5-5.5c-2-1.3-3.8-2.7-5.4-4.4
						c-4.6-4.6-7.9-10.6-9.2-17.3C317.4,162.6,323.5,150.7,325.8,139.1z M268.6,246.3h-34.8l13.5-13.3l11.8-11.6
						c6.3,9.7,14.4,18.1,23.9,24.9H268.6z M336.3,255.1c-0.3,0-0.7,0-1,0c-13.1-0.1-25.4-3.3-36.4-8.8c-7.5-3.7-14.3-8.5-20.3-14.2
						c-5.2-4.9-9.8-10.5-13.5-16.6l6.3-6.2l12.5-12.3l1.8-1.8l2.6-2.6l7.1-6.9c3.4,9.4,9.9,17.4,18.3,22.5c6.6,4,14.3,6.4,22.6,6.4
						c24,0,43.5-19.5,43.5-43.5s-19.5-43.5-43.5-43.5c-0.8,0-1.6,0.1-2.5,0.1c-2.4,0.1-4.7,0.4-7,0.9c0-0.6,0-1.3,0-1.9
						c0-2-0.1-4-0.3-5.9c-0.9-8.8-3.9-16.4-8.7-22.8c-1.9-2.6-4.2-4.9-6.7-7c1.6-0.5,3.1-0.9,4.7-1.3c6.5-1.6,13.4-2.5,20.4-2.5
						c46.3,0,83.9,37.6,83.9,83.9C420.2,217.5,382.6,255.1,336.3,255.1z"/>
					<path class="st2" d="M335.3,246.5v-0.2h-4C332.7,246.4,334,246.5,335.3,246.5z"/>
				</g>
			</g>
			<g>
				<path class="st3" d="M171.1,48.5c0-6.6,5-11.3,11.9-11.3c4,0,7.2,1.5,9.3,4.1l-3.9,3.5c-1.4-1.6-3-2.5-5.1-2.5
					c-3.6,0-6,2.5-6,6.2c0,3.7,2.5,6.2,6,6.2c2.1,0,3.7-0.9,5.1-2.5l3.9,3.5c-2.1,2.6-5.3,4.1-9.3,4.1
					C176.1,59.7,171.1,55,171.1,48.5z"/>
				<path class="st3" d="M217.1,54.5v4.7h-17.4V37.6h17v4.7h-10.9V46h9.6v4.6h-9.6v4H217.1z"/>
				<path class="st3" d="M225.1,37.6h6.1v16.8h10.3v4.9h-16.5L225.1,37.6L225.1,37.6z"/>
				<path class="st3" d="M266,54.5v4.7h-17.4V37.6h17v4.7h-10.9V46h9.6v4.6h-9.6v4H266z"/>
				<path class="st3" d="M294.6,53.3c0,3.7-3.1,5.9-8.9,5.9H274V37.6h11.1c5.7,0,8.5,2.3,8.5,5.7c0,2.1-1,3.7-2.9,4.7
					C293.1,48.8,294.6,50.7,294.6,53.3z M280.1,42v4.2h4.2c2,0,3.1-0.7,3.1-2.1c0-1.4-1-2.1-3.1-2.1L280.1,42L280.1,42z M288.4,52.7
					c0-1.5-1.1-2.2-3.2-2.2h-5.1v4.4h5.1C287.3,54.8,288.4,54.1,288.4,52.7z"/>
				<path class="st3" d="M311.9,53.5h-3.3v5.8h-6.1V37.6h9.9c5.9,0,9.6,3.1,9.6,8c0,3.2-1.5,5.5-4.2,6.8l4.7,6.8h-6.6L311.9,53.5z
					 M312,42.5h-3.4v6.3h3.4c2.5,0,3.8-1.2,3.8-3.2C315.8,43.6,314.5,42.5,312,42.5z"/>
				<path class="st3" d="M344.5,55.1h-9.2l-1.7,4.2h-6.2l9.6-21.7h6l9.6,21.7h-6.4L344.5,55.1z M342.7,50.5l-2.8-6.9l-2.8,6.9H342.7
					z"/>
				<path class="st3" d="M362.5,42.5h-6.6v-4.9h19.4v4.9h-6.6v16.8h-6.1V42.5z"/>
				<path class="st3" d="M382.1,37.6h6.1v21.6h-6.1V37.6z"/>
				<path class="st3" d="M417.8,37.6v21.6h-5l-9.6-11.5v11.5h-6V37.6h5l9.6,11.5V37.6H417.8z"/>
				<path class="st3" d="M441.3,48h5.4v9c-2.5,1.8-5.9,2.8-9.1,2.8c-6.9,0-11.9-4.7-11.9-11.3s5-11.3,12.1-11.3c4,0,7.3,1.4,9.5,4
					l-3.9,3.5c-1.5-1.6-3.2-2.4-5.3-2.4c-3.7,0-6.2,2.4-6.2,6.2c0,3.7,2.5,6.2,6.1,6.2c1.1,0,2.2-0.2,3.3-0.7L441.3,48L441.3,48z"/>
			</g>
			<g>
				<path class="st3" d="M258.4,289.5v7.8h-6.1v-7.9l-8.3-13.8h6.5l5.1,8.6l5.1-8.6h5.9L258.4,289.5z"/>
				<path class="st3" d="M290.1,292.5v4.7h-17.4v-21.6h17v4.7h-10.9v3.6h9.6v4.6h-9.6v4L290.1,292.5L290.1,292.5z"/>
				<path class="st3" d="M312.7,293.1h-9.2l-1.7,4.2h-6.2l9.6-21.6h6l9.6,21.6h-6.4L312.7,293.1z M310.9,288.5l-2.8-6.9l-2.8,6.9
					H310.9z"/>
				<path class="st3" d="M336.6,291.5h-3.3v5.8h-6.1v-21.6h9.9c5.9,0,9.6,3.1,9.6,8c0,3.2-1.5,5.5-4.2,6.8l4.7,6.8h-6.6L336.6,291.5
					z M336.6,280.4h-3.4v6.3h3.4c2.5,0,3.8-1.2,3.8-3.2C340.4,281.6,339.2,280.4,336.6,280.4z"/>
				<path class="st3" d="M353.1,295.3l2-4.5c1.9,1.3,4.6,2.1,7.1,2.1c2.5,0,3.5-0.7,3.5-1.8c0-3.4-12.3-0.9-12.3-9
					c0-3.9,3.1-7,9.6-7c2.8,0,5.7,0.6,7.9,1.9l-1.9,4.5c-2.1-1.1-4.1-1.7-6-1.7c-2.6,0-3.5,0.9-3.5,2c0,3.3,12.3,0.8,12.3,8.8
					c0,3.8-3.2,7-9.6,7C358.7,297.7,355.2,296.7,353.1,295.3z"/>
			</g>
			<g>
				<path class="st3" d="M45.7,333.9c0-6.5,5.1-11.3,12-11.3s12,4.8,12,11.3s-5.1,11.3-12,11.3S45.7,340.4,45.7,333.9z M63.6,333.9
					c0-3.7-2.6-6.2-5.8-6.2s-5.8,2.4-5.8,6.2c0,3.7,2.6,6.2,5.8,6.2C61,340.1,63.6,337.6,63.6,333.9z"/>
				<path class="st3" d="M83.7,327.8v4.8h9.6v4.7h-9.6v7.4h-6.1v-21.6h17v4.7L83.7,327.8L83.7,327.8z"/>
				<path class="st3" d="M114.6,333.9c0-6.6,5-11.3,11.9-11.3c4,0,7.2,1.5,9.3,4.1l-3.9,3.5c-1.4-1.6-3-2.5-5.1-2.5
					c-3.6,0-6,2.5-6,6.2s2.5,6.2,6,6.2c2.1,0,3.7-0.9,5.1-2.5l3.9,3.5c-2.1,2.6-5.3,4.1-9.3,4.1
					C119.7,345.2,114.6,340.5,114.6,333.9z"/>
				<path class="st3" d="M157.3,340.5h-9.2l-1.7,4.2h-6.2l9.6-21.6h6l9.6,21.6H159L157.3,340.5z M155.5,336l-2.8-6.9L150,336H155.5z
					"/>
				<path class="st3" d="M191.3,344.7l-0.1-11.5l-5.6,9.3H183l-5.5-9v11.2h-5.7v-21.6h5l7.6,12.5l7.4-12.5h5l0.1,21.6H191.3z"/>
				<path class="st3" d="M223.3,340v4.7h-17.4v-21.6h17v4.7H212v3.6h9.6v4.6H212v4H223.3z"/>
				<path class="st3" d="M240.8,339h-3.3v5.8h-6.1v-21.6h9.9c5.9,0,9.6,3.1,9.6,8c0,3.2-1.6,5.5-4.2,6.8l4.7,6.8h-6.6L240.8,339z
					 M240.9,327.9h-3.4v6.3h3.4c2.5,0,3.8-1.2,3.8-3.2C244.7,329.1,243.4,327.9,240.9,327.9z"/>
				<path class="st3" d="M273.4,340.5h-9.2l-1.7,4.2h-6.2l9.6-21.6h6l9.6,21.6h-6.4L273.4,340.5z M271.6,336l-2.8-6.9L266,336H271.6
					z"/>
				<path class="st3" d="M318.8,340v4.7h-17.4v-21.6h17v4.7h-10.9v3.6h9.6v4.6h-9.6v4H318.8z"/>
				<path class="st3" d="M347.5,323.1v21.6h-5l-9.6-11.5v11.5h-6v-21.6h5l9.6,11.5v-11.5H347.5z"/>
				<path class="st3" d="M370.9,333.4h5.4v9c-2.5,1.8-5.9,2.8-9.1,2.8c-6.9,0-11.9-4.7-11.9-11.3s5-11.3,12.1-11.3
					c4,0,7.3,1.4,9.5,4l-3.9,3.5c-1.5-1.6-3.2-2.4-5.3-2.4c-3.7,0-6.2,2.4-6.2,6.2c0,3.6,2.5,6.2,6.1,6.2c1.1,0,2.2-0.2,3.3-0.7
					L370.9,333.4L370.9,333.4z"/>
				<path class="st3" d="M384.9,323.1h6.1v21.6h-6.1V323.1z"/>
				<path class="st3" d="M420.6,323.1v21.6h-5l-9.6-11.5v11.5h-6v-21.6h5l9.6,11.5v-11.5H420.6z"/>
				<path class="st3" d="M446.9,340v4.7h-17.4v-21.6h17v4.7h-10.9v3.6h9.6v4.6h-9.6v4H446.9z"/>
				<path class="st3" d="M472.4,340v4.7H455v-21.6h17v4.7H461v3.6h9.6v4.6H461v4H472.4z"/>
				<path class="st3" d="M489.8,339h-3.3v5.8h-6.1v-21.6h9.9c5.9,0,9.6,3.1,9.6,8c0,3.2-1.5,5.5-4.2,6.8l4.7,6.8h-6.6L489.8,339z
					 M489.9,327.9h-3.4v6.3h3.4c2.5,0,3.8-1.2,3.8-3.2C493.7,329.1,492.4,327.9,489.9,327.9z"/>
				<path class="st3" d="M507.9,323.1h6.1v21.6h-6.1L507.9,323.1L507.9,323.1z"/>
				<path class="st3" d="M543.6,323.1v21.6h-5l-9.6-11.5v11.5h-6v-21.6h5l9.6,11.5v-11.5H543.6z"/>
				<path class="st3" d="M567.1,333.4h5.4v9c-2.5,1.8-5.9,2.8-9.1,2.8c-6.9,0-11.9-4.7-11.9-11.3s5-11.3,12.1-11.3
					c4,0,7.3,1.4,9.5,4l-3.9,3.5c-1.5-1.6-3.2-2.4-5.3-2.4c-3.7,0-6.2,2.4-6.2,6.2c0,3.6,2.5,6.2,6.1,6.2c1.1,0,2.2-0.2,3.3-0.7
					L567.1,333.4L567.1,333.4z"/>
			</g>
		</g>
		<g>
			<g>
				<rect x="608.9" y="37.1" class="st4" width="5.2" height="311.9"/>
			</g>
		</g>
		<g>
			<g>
				<g>
					<polygon class="st5" points="891.7,158.2 891.7,40.8 860.9,40.8 860.9,188.4 889.8,188.4 891.7,188.4 1006.6,188.4 
						1006.6,158.2 					"/>
					<polygon class="st5" points="820.5,227.8 820.5,345.2 851.4,345.2 851.4,197.6 822.5,197.6 820.5,197.6 705.7,197.6 
						705.7,227.8 					"/>
					<polygon class="st6" points="891.8,227.8 891.8,345.2 861,345.2 861,197.6 889.9,197.6 891.8,197.6 1006.6,197.6 1006.6,227.8 
											"/>
					<polygon class="st6" points="820.5,158.2 820.5,40.8 851.3,40.8 851.3,188.4 822.4,188.4 820.5,188.4 705.6,188.4 705.6,158.2 
											"/>
					<circle class="st5" cx="915.7" cy="135.1" r="21.1"/>
					<ellipse class="st5" cx="944.6" cy="107.4" rx="17.8" ry="17.8"/>
					
						<ellipse transform="matrix(0.1602 -0.9871 0.9871 0.1602 731.4932 1025.8167)" class="st5" cx="968.6" cy="83" rx="13.9" ry="13.9"/>
					<circle class="st5" cx="987.5" cy="64.1" r="9.9"/>
					
						<ellipse transform="matrix(0.3827 -0.9239 0.9239 0.3827 573.4577 957.8317)" class="st5" cx="1003.5" cy="49.8" rx="6.8" ry="6.8"/>
					<circle class="st6" cx="796.6" cy="135.1" r="21.1"/>
					<ellipse class="st6" cx="767.8" cy="107.4" rx="17.8" ry="17.8"/>
					
						<ellipse transform="matrix(0.9871 -0.1602 0.1602 0.9871 -3.693 120.2094)" class="st6" cx="743.7" cy="83" rx="13.9" ry="13.9"/>
					<circle class="st6" cx="724.8" cy="64.1" r="9.9"/>
					
						<ellipse transform="matrix(0.9239 -0.3827 0.3827 0.9239 34.8997 275.0524)" class="st6" cx="708.8" cy="49.8" rx="6.8" ry="6.8"/>
					<circle class="st6" cx="915.7" cy="251.6" r="21.1"/>
					<circle class="st6" cx="944.5" cy="279.3" r="17.8"/>
					<circle class="st6" cx="968.6" cy="303.6" r="13.9"/>
					<ellipse class="st6" cx="987.5" cy="322.6" rx="9.9" ry="9.9"/>
					
						<ellipse transform="matrix(0.9975 -7.089881e-02 7.089881e-02 0.9975 -21.3574 71.9932)" class="st6" cx="1003.5" cy="336.9" rx="6.8" ry="6.8"/>
					<circle class="st5" cx="796.6" cy="251.6" r="21.1"/>
					<circle class="st5" cx="767.7" cy="279.3" r="17.8"/>
					<circle class="st5" cx="743.7" cy="303.6" r="13.9"/>
					<ellipse class="st5" cx="724.8" cy="322.6" rx="9.9" ry="9.9"/>
					
						<ellipse transform="matrix(7.089883e-02 -0.9975 0.9975 7.089883e-02 322.5544 1020.0162)" class="st5" cx="708.8" cy="336.9" rx="6.8" ry="6.8"/>
					<path class="st6" d="M1078.6,147.5l13.9,2.3c-1.8,5.1-4.6,9-8.5,11.6c-3.9,2.7-8.7,4-14.5,4c-9.2,0-16-3-20.4-9
						c-3.5-4.8-5.2-10.9-5.2-18.2c0-8.7,2.3-15.6,6.9-20.5c4.6-4.9,10.3-7.4,17.3-7.4c7.8,0,14,2.6,18.6,7.8
						c4.5,5.2,6.7,13.1,6.5,23.8h-35c0.1,4.1,1.2,7.4,3.4,9.7s4.8,3.4,8.1,3.4c2.2,0,4-0.6,5.5-1.8S1077.8,150.2,1078.6,147.5z
						 M1079.4,133.4c-0.1-4-1.1-7.1-3.1-9.2c-2-2.1-4.4-3.2-7.2-3.2c-3.1,0-5.6,1.1-7.6,3.3s-3,5.2-2.9,9L1079.4,133.4L1079.4,133.4
						z"/>
					<rect x="1103.1" y="130.9" class="st6" width="27.4" height="14"/>
					<path class="st6" d="M1184.5,127.2l-13.8,2.5c-0.5-2.8-1.5-4.8-3.2-6.2s-3.8-2.1-6.4-2.1c-3.5,0-6.2,1.2-8.3,3.6
						s-3.1,6.4-3.1,12.1c0,6.3,1.1,10.7,3.2,13.3c2.1,2.6,4.9,3.9,8.5,3.9c2.7,0,4.8-0.8,6.5-2.3c1.7-1.5,2.9-4.1,3.6-7.8l13.7,2.3
						c-1.4,6.3-4.2,11.1-8.2,14.3c-4,3.2-9.5,4.8-16.2,4.8c-7.7,0-13.9-2.4-18.5-7.3c-4.6-4.9-6.9-11.6-6.9-20.2
						c0-8.7,2.3-15.5,6.9-20.3c4.6-4.8,10.8-7.3,18.7-7.3c6.4,0,11.5,1.4,15.3,4.2C1180.2,117.3,1182.9,121.5,1184.5,127.2z"/>
					<path class="st6" d="M1191.9,137.2c0-4.6,1.1-9.1,3.4-13.5c2.3-4.3,5.5-7.7,9.7-9.9s8.9-3.4,14-3.4c8,0,14.5,2.6,19.6,7.8
						c5.1,5.2,7.7,11.7,7.7,19.6c0,8-2.6,14.6-7.7,19.9s-11.6,7.9-19.4,7.9c-4.8,0-9.4-1.1-13.8-3.3s-7.7-5.4-10-9.6
						C1193,148.4,1191.9,143.3,1191.9,137.2z M1206.2,137.9c0,5.2,1.2,9.2,3.7,12c2.5,2.8,5.6,4.2,9.2,4.2c3.6,0,6.7-1.4,9.2-4.2
						c2.5-2.8,3.7-6.8,3.7-12.1c0-5.2-1.2-9.1-3.7-11.9s-5.5-4.2-9.2-4.2c-3.6,0-6.7,1.4-9.2,4.2S1206.2,132.7,1206.2,137.9z"/>
					<path class="st6" d="M1305.3,164.3h-14v-26.9c0-5.7-0.3-9.4-0.9-11.1c-0.6-1.7-1.6-3-2.9-3.9c-1.3-0.9-3-1.4-4.8-1.4
						c-2.4,0-4.6,0.7-6.5,2c-1.9,1.3-3.2,3.1-3.9,5.3s-1.1,6.2-1.1,12.1v23.9h-14v-52.8h13v7.8c4.6-6,10.4-8.9,17.4-8.9
						c3.1,0,5.9,0.6,8.4,1.7c2.6,1.1,4.5,2.5,5.8,4.2s2.2,3.7,2.7,5.9c0.5,2.2,0.8,5.3,0.8,9.4L1305.3,164.3L1305.3,164.3z"/>
					<path class="st6" d="M1344.1,140.6l14.3-1.4c0.9,4.8,2.6,8.3,5.2,10.6s6.2,3.4,10.7,3.4c4.7,0,8.3-1,10.7-3
						c2.4-2,3.6-4.4,3.6-7c0-1.7-0.5-3.2-1.5-4.4c-1-1.2-2.8-2.3-5.3-3.1c-1.7-0.6-5.7-1.7-11.8-3.2c-7.9-1.9-13.4-4.4-16.6-7.2
						c-4.5-4-6.7-8.9-6.7-14.7c0-3.7,1.1-7.2,3.2-10.4s5.1-5.7,9.1-7.4c4-1.7,8.7-2.5,14.3-2.5c9.1,0,16,2,20.6,6s7.1,9.4,7.3,16.1
						l-14.7,0.7c-0.6-3.7-2-6.4-4.1-8.1c-2.1-1.6-5.2-2.5-9.3-2.5c-4.3,0-7.6,0.9-10,2.6c-1.6,1.1-2.3,2.6-2.3,4.5
						c0,1.7,0.7,3.2,2.2,4.4c1.9,1.6,6.4,3.2,13.5,4.9s12.4,3.4,15.9,5.2c3.4,1.8,6.1,4.3,8.1,7.4s2.9,7,2.9,11.6
						c0,4.2-1.2,8.1-3.5,11.7c-2.3,3.6-5.6,6.4-9.8,8.1c-4.2,1.8-9.5,2.7-15.8,2.7c-9.2,0-16.3-2.1-21.2-6.4
						C1348,155,1345,148.8,1344.1,140.6z"/>
					<path class="st6" d="M1409,111.6h14.9l12.6,37.5l12.3-37.5h14.5l-18.6,50.8l-3.3,9.2c-1.2,3.1-2.4,5.4-3.5,7.1
						c-1.1,1.6-2.4,2.9-3.8,3.9c-1.4,1-3.2,1.8-5.3,2.4c-2.1,0.6-4.5,0.8-7.1,0.8c-2.7,0-5.3-0.3-7.9-0.8l-1.2-10.9
						c2.2,0.4,4.2,0.6,5.9,0.6c3.2,0,5.7-0.9,7.2-2.9c1.6-1.9,2.8-4.3,3.6-7.3L1409,111.6z"/>
					<path class="st6" d="M1467.2,149.3l14-2.1c0.6,2.7,1.8,4.8,3.6,6.2s4.4,2.1,7.7,2.1c3.6,0,6.3-0.7,8.2-2
						c1.2-0.9,1.8-2.2,1.8-3.7c0-1.1-0.3-1.9-1-2.6c-0.7-0.7-2.2-1.3-4.7-1.8c-11.3-2.5-18.4-4.8-21.4-6.8
						c-4.2-2.9-6.3-6.8-6.3-11.9c0-4.6,1.8-8.4,5.4-11.5c3.6-3.1,9.2-4.7,16.8-4.7c7.2,0,12.6,1.2,16.1,3.5s5.9,5.8,7.2,10.4
						l-13.2,2.4c-0.6-2.1-1.6-3.6-3.2-4.7c-1.6-1.1-3.8-1.6-6.7-1.6c-3.7,0-6.3,0.5-7.9,1.5c-1.1,0.7-1.6,1.7-1.6,2.8
						c0,1,0.5,1.8,1.4,2.5c1.3,0.9,5.6,2.2,13,3.9c7.4,1.7,12.6,3.8,15.6,6.2c2.9,2.5,4.4,5.9,4.4,10.4c0,4.8-2,9-6.1,12.5
						s-10,5.2-17.9,5.2c-7.2,0-12.9-1.5-17.1-4.4C1471.3,158.2,1468.5,154.3,1467.2,149.3z"/>
					<path class="st6" d="M1552.9,111.6v11.1h-9.5V144c0,4.3,0.1,6.8,0.3,7.5c0.2,0.7,0.6,1.3,1.2,1.8c0.7,0.5,1.4,0.7,2.4,0.7
						c1.3,0,3.2-0.4,5.6-1.3l1.2,10.8c-3.2,1.4-6.9,2.1-11,2.1c-2.5,0-4.8-0.4-6.8-1.3c-2-0.8-3.5-1.9-4.4-3.3
						c-0.9-1.3-1.6-3.2-2-5.4c-0.3-1.6-0.4-4.9-0.4-9.8v-23h-6.4v-11.1h6.4v-10.5l14-8.2v18.6L1552.9,111.6L1552.9,111.6z"/>
					<path class="st6" d="M1593.2,147.5l13.9,2.3c-1.8,5.1-4.6,9-8.5,11.6c-3.9,2.7-8.7,4-14.5,4c-9.2,0-16-3-20.4-9
						c-3.5-4.8-5.2-10.9-5.2-18.2c0-8.7,2.3-15.6,6.9-20.5c4.6-4.9,10.3-7.4,17.3-7.4c7.8,0,14,2.6,18.6,7.8
						c4.5,5.2,6.7,13.1,6.5,23.8h-35c0.1,4.1,1.2,7.4,3.4,9.7s4.8,3.4,8.1,3.4c2.2,0,4-0.6,5.5-1.8S1592.4,150.2,1593.2,147.5z
						 M1594,133.4c-0.1-4-1.1-7.1-3.1-9.2c-2-2.1-4.4-3.2-7.2-3.2c-3.1,0-5.6,1.1-7.6,3.3s-3,5.2-2.9,9L1594,133.4L1594,133.4z"/>
					<path class="st6" d="M1618.2,111.6h12.9v7.2c4.6-5.6,10.1-8.4,16.4-8.4c3.4,0,6.3,0.7,8.8,2.1s4.5,3.5,6.1,6.3
						c2.3-2.8,4.8-4.9,7.5-6.3s5.6-2.1,8.6-2.1c3.9,0,7.2,0.8,9.8,2.4c2.7,1.6,4.7,3.9,6,6.9c1,2.2,1.4,5.9,1.4,10.9v33.7h-14v-30.2
						c0-5.2-0.5-8.6-1.4-10.1c-1.3-2-3.3-3-6-3c-1.9,0-3.8,0.6-5.5,1.8s-3,2.9-3.7,5.2c-0.8,2.3-1.1,5.9-1.1,10.9v25.3h-14v-28.9
						c0-5.1-0.2-8.4-0.8-9.9c-0.5-1.5-1.3-2.6-2.3-3.3s-2.5-1.1-4.2-1.1c-2.2,0-4.1,0.6-5.8,1.7c-1.7,1.2-3,2.8-3.7,5
						c-0.8,2.2-1.1,5.8-1.1,10.9v25.6h-14V111.6z"/>
					<path class="st6" d="M1704.8,149.3l14-2.1c0.6,2.7,1.8,4.8,3.6,6.2s4.4,2.1,7.7,2.1c3.6,0,6.3-0.7,8.2-2
						c1.2-0.9,1.8-2.2,1.8-3.7c0-1.1-0.3-1.9-1-2.6c-0.7-0.7-2.2-1.3-4.7-1.8c-11.3-2.5-18.4-4.8-21.4-6.8
						c-4.2-2.9-6.3-6.8-6.3-11.9c0-4.6,1.8-8.4,5.4-11.5c3.6-3.1,9.2-4.7,16.8-4.7c7.2,0,12.6,1.2,16.1,3.5s5.9,5.8,7.2,10.4
						l-13.2,2.4c-0.6-2.1-1.6-3.6-3.2-4.7c-1.6-1.1-3.8-1.6-6.7-1.6c-3.7,0-6.3,0.5-7.9,1.5c-1.1,0.7-1.6,1.7-1.6,2.8
						c0,1,0.5,1.8,1.4,2.5c1.3,0.9,5.6,2.2,13,3.9c7.4,1.7,12.6,3.8,15.6,6.2c2.9,2.5,4.4,5.9,4.4,10.4c0,4.8-2,9-6.1,12.5
						s-10,5.2-17.9,5.2c-7.2,0-12.9-1.5-17.1-4.4C1708.8,158.2,1706.1,154.3,1704.8,149.3z"/>
				</g>
				<g>
					<path d="M1781.9,94.1c0,3.4-0.8,6.6-2.6,9.5c-1.7,2.9-4,5.2-7,6.9s-6.1,2.5-9.5,2.5c-3.4,0-6.5-0.8-9.5-2.5s-5.2-4-7-6.9
						c-1.7-2.9-2.6-6.1-2.6-9.5c0-3.4,0.8-6.6,2.6-9.5c1.7-2.9,4-5.3,7-7c2.9-1.7,6.1-2.5,9.5-2.5c3.4,0,6.6,0.8,9.5,2.5
						c2.9,1.7,5.3,4,7,7S1781.9,90.7,1781.9,94.1z M1778.2,94.1c0-4.2-1.5-7.8-4.5-10.8s-6.6-4.5-10.8-4.5s-7.8,1.5-10.8,4.5
						c-3,3-4.5,6.6-4.5,10.8s1.5,7.8,4.5,10.8c3,3,6.6,4.5,10.8,4.5s7.8-1.5,10.8-4.5C1776.7,101.9,1778.2,98.3,1778.2,94.1z
						 M1754.3,83.9h9.1c2.6,0,4.4,0.5,5.6,1.6c1.2,1,1.7,2.4,1.7,4.2c0,1.4-0.4,2.5-1.3,3.5c-0.9,1-2.3,1.7-4.2,2.2
						c0.8,0.3,1.3,0.6,1.7,0.9c0.5,0.5,1.1,1.2,1.6,2.1c0,0.1,1.1,2,3.3,5.9h-6c-1.9-3.9-3.2-6.2-3.9-6.9c-0.7-0.8-1.3-1.1-2-1.1
						c-0.2,0-0.4,0-0.6,0.1v8h-5.1L1754.3,83.9L1754.3,83.9z M1759.3,92.6h2.2c1.5,0,2.5-0.2,3.1-0.7s0.9-1.1,0.9-1.8
						s-0.3-1.4-0.9-1.8s-1.6-0.7-2.9-0.7h-2.4L1759.3,92.6L1759.3,92.6z"/>
				</g>
			</g>
			<g>
				<path class="st5" d="M1077.4,263.1v-30.3h-10.8v-6.2h29v6.2h-10.8v30.3H1077.4z"/>
				<path class="st5" d="M1107.3,226.6V240c2.3-2.6,4.9-4,8.1-4c1.6,0,3.1,0.3,4.4,0.9c1.3,0.6,2.3,1.4,2.9,2.3
					c0.7,0.9,1.1,2,1.3,3.1c0.2,1.1,0.4,2.9,0.4,5.2v15.5h-7v-14c0-2.8-0.1-4.5-0.4-5.3s-0.7-1.3-1.4-1.8c-0.7-0.4-1.5-0.7-2.5-0.7
					c-1.2,0-2.2,0.3-3.1,0.9c-0.9,0.6-1.6,1.4-2,2.6s-0.6,2.8-0.6,5v13.2h-7v-36.5L1107.3,226.6L1107.3,226.6z"/>
				<path class="st5" d="M1131.5,233v-6.5h7v6.5H1131.5z M1131.5,263.1v-26.4h7v26.4H1131.5z"/>
				<path class="st5" d="M1169.7,263.1h-7v-13.5c0-2.9-0.2-4.7-0.4-5.5c-0.3-0.8-0.8-1.5-1.5-1.9c-0.7-0.5-1.5-0.7-2.4-0.7
					c-1.2,0-2.3,0.3-3.3,1c-1,0.7-1.6,1.5-2,2.6s-0.5,3.1-0.5,6.1v12h-7v-26.4h6.5v3.9c2.3-3,5.2-4.5,8.7-4.5c1.5,0,2.9,0.3,4.2,0.8
					c1.3,0.6,2.2,1.3,2.9,2.1s1.1,1.8,1.4,2.9s0.4,2.7,0.4,4.7L1169.7,263.1L1169.7,263.1z"/>
				<path class="st5" d="M1176.5,263.1v-36.5h7v19.4l8.2-9.3h8.6l-9,9.7l9.7,16.8h-7.5l-6.7-11.9l-3.3,3.4v8.5L1176.5,263.1
					L1176.5,263.1z"/>
				<path class="st5" d="M1228.7,263.1l-13-36.5h8l9.2,27l8.9-27h7.8l-13.1,36.5H1228.7z"/>
				<path class="st5" d="M1252.4,233v-6.5h7v6.5H1252.4z M1252.4,263.1v-26.4h7v26.4H1252.4z"/>
				<path class="st5" d="M1264.1,255.5l7-1.1c0.3,1.4,0.9,2.4,1.8,3.1c0.9,0.7,2.2,1.1,3.8,1.1c1.8,0,3.2-0.3,4.1-1
					c0.6-0.5,0.9-1.1,0.9-1.9c0-0.5-0.2-1-0.5-1.3c-0.3-0.3-1.1-0.6-2.3-0.9c-5.6-1.2-9.2-2.4-10.7-3.4c-2.1-1.4-3.1-3.4-3.1-5.9
					c0-2.3,0.9-4.2,2.7-5.8c1.8-1.6,4.6-2.3,8.4-2.3c3.6,0,6.3,0.6,8.1,1.8c1.8,1.2,3,2.9,3.6,5.2l-6.6,1.2c-0.3-1-0.8-1.8-1.6-2.4
					c-0.8-0.6-1.9-0.8-3.4-0.8c-1.8,0-3.2,0.3-4,0.8c-0.5,0.4-0.8,0.8-0.8,1.4c0,0.5,0.2,0.9,0.7,1.3c0.6,0.5,2.8,1.1,6.5,2
					c3.7,0.9,6.3,1.9,7.8,3.1c1.5,1.2,2.2,3,2.2,5.2c0,2.4-1,4.5-3,6.2s-5,2.6-9,2.6c-3.6,0-6.4-0.7-8.6-2.2
					C1266.1,260,1264.7,258,1264.1,255.5z"/>
				<path class="st5" d="M1294.9,233v-6.5h7v6.5H1294.9z M1294.9,263.1v-26.4h7v26.4H1294.9z"/>
				<path class="st5" d="M1307.4,249.5c0-2.3,0.6-4.6,1.7-6.8c1.2-2.2,2.8-3.8,4.9-5s4.4-1.7,7-1.7c4,0,7.3,1.3,9.8,3.9
					c2.6,2.6,3.8,5.9,3.8,9.9c0,4-1.3,7.3-3.9,9.9c-2.6,2.6-5.8,4-9.8,4c-2.4,0-4.7-0.5-6.9-1.6c-2.2-1.1-3.9-2.7-5-4.8
					C1308,255.1,1307.4,252.5,1307.4,249.5z M1314.6,249.9c0,2.6,0.6,4.6,1.9,6c1.2,1.4,2.8,2.1,4.6,2.1s3.4-0.7,4.6-2.1
					c1.2-1.4,1.8-3.4,1.8-6.1c0-2.6-0.6-4.6-1.8-6c-1.2-1.4-2.8-2.1-4.6-2.1c-1.8,0-3.4,0.7-4.6,2.1
					C1315.2,245.2,1314.6,247.2,1314.6,249.9z"/>
				<path class="st5" d="M1364.2,263.1h-7v-13.5c0-2.9-0.2-4.7-0.4-5.5c-0.3-0.8-0.8-1.5-1.5-1.9c-0.7-0.5-1.5-0.7-2.4-0.7
					c-1.2,0-2.3,0.3-3.3,1c-1,0.7-1.6,1.5-2,2.6s-0.5,3.1-0.5,6.1v12h-7v-26.4h6.5v3.9c2.3-3,5.2-4.5,8.7-4.5c1.5,0,2.9,0.3,4.2,0.8
					c1.3,0.6,2.2,1.3,2.9,2.1s1.1,1.8,1.4,2.9s0.4,2.7,0.4,4.7L1364.2,263.1L1364.2,263.1z"/>
				<path class="st5" d="M1371.3,263.1v-7h7v7H1371.3z"/>
				<path class="st5" d="M1407.9,263.1v-30.3h-10.8v-6.2h29v6.2h-10.8v30.3H1407.9z"/>
				<path class="st5" d="M1437.8,226.6V240c2.3-2.6,4.9-4,8.1-4c1.6,0,3.1,0.3,4.4,0.9c1.3,0.6,2.3,1.4,2.9,2.3
					c0.7,0.9,1.1,2,1.3,3.1c0.2,1.1,0.4,2.9,0.4,5.2v15.5h-7v-14c0-2.8-0.1-4.5-0.4-5.3s-0.7-1.3-1.4-1.8c-0.7-0.4-1.5-0.7-2.5-0.7
					c-1.2,0-2.2,0.3-3.1,0.9c-0.9,0.6-1.6,1.4-2,2.6s-0.6,2.8-0.6,5v13.2h-7v-36.5L1437.8,226.6L1437.8,226.6z"/>
				<path class="st5" d="M1462,233v-6.5h7v6.5H1462z M1462,263.1v-26.4h7v26.4H1462z"/>
				<path class="st5" d="M1500.2,263.1h-7v-13.5c0-2.9-0.2-4.7-0.4-5.5c-0.3-0.8-0.8-1.5-1.5-1.9c-0.7-0.5-1.5-0.7-2.4-0.7
					c-1.2,0-2.3,0.3-3.3,1c-1,0.7-1.6,1.5-2,2.6s-0.5,3.1-0.5,6.1v12h-7v-26.4h6.5v3.9c2.3-3,5.2-4.5,8.7-4.5c1.5,0,2.9,0.3,4.2,0.8
					c1.3,0.6,2.2,1.3,2.9,2.1s1.1,1.8,1.4,2.9s0.4,2.7,0.4,4.7L1500.2,263.1L1500.2,263.1z"/>
				<path class="st5" d="M1507,263.1v-36.5h7v19.4l8.2-9.3h8.6l-9,9.7l9.7,16.8h-7.5l-6.7-11.9l-3.3,3.4v8.5L1507,263.1L1507,263.1z
					"/>
				<path class="st5" d="M1565.1,254.6l7,1.2c-0.9,2.6-2.3,4.5-4.2,5.8c-1.9,1.3-4.3,2-7.3,2c-4.6,0-8-1.5-10.2-4.5
					c-1.7-2.4-2.6-5.4-2.6-9.1c0-4.4,1.2-7.8,3.4-10.3c2.3-2.5,5.2-3.7,8.7-3.7c3.9,0,7,1.3,9.3,3.9c2.3,2.6,3.4,6.6,3.3,11.9h-17.5
					c0.1,2.1,0.6,3.7,1.7,4.8s2.4,1.7,4,1.7c1.1,0,2-0.3,2.8-0.9C1564.2,256.9,1564.7,256,1565.1,254.6z M1565.5,247.6
					c-0.1-2-0.6-3.6-1.6-4.6c-1-1.1-2.2-1.6-3.6-1.6c-1.5,0-2.8,0.6-3.8,1.7c-1,1.1-1.5,2.6-1.5,4.5H1565.5z"/>
				<path class="st5" d="M1577.3,253.3v-7h13.7v7H1577.3z"/>
				<path class="st5" d="M1618.2,244.4l-6.9,1.2c-0.2-1.4-0.8-2.4-1.6-3.1s-1.9-1.1-3.2-1.1c-1.7,0-3.1,0.6-4.2,1.8s-1.6,3.2-1.6,6
					c0,3.1,0.5,5.4,1.6,6.6c1.1,1.3,2.5,1.9,4.2,1.9c1.3,0,2.4-0.4,3.3-1.1s1.4-2.1,1.8-3.9l6.9,1.2c-0.7,3.2-2.1,5.5-4.1,7.1
					s-4.7,2.4-8.1,2.4c-3.9,0-6.9-1.2-9.2-3.7s-3.4-5.8-3.4-10.1c0-4.4,1.2-7.8,3.5-10.2c2.3-2.4,5.4-3.6,9.4-3.6
					c3.2,0,5.8,0.7,7.7,2.1C1616,239.5,1617.3,241.6,1618.2,244.4z"/>
				<path class="st5" d="M1621.8,249.5c0-2.3,0.6-4.6,1.7-6.8c1.2-2.2,2.8-3.8,4.9-5s4.4-1.7,7-1.7c4,0,7.3,1.3,9.8,3.9
					c2.6,2.6,3.8,5.9,3.8,9.9c0,4-1.3,7.3-3.9,9.9c-2.6,2.6-5.8,4-9.8,4c-2.4,0-4.7-0.5-6.9-1.6c-2.2-1.1-3.9-2.7-5-4.8
					C1622.4,255.1,1621.8,252.5,1621.8,249.5z M1629,249.9c0,2.6,0.6,4.6,1.9,6c1.2,1.4,2.8,2.1,4.6,2.1s3.4-0.7,4.6-2.1
					c1.2-1.4,1.9-3.4,1.9-6.1c0-2.6-0.6-4.6-1.9-6s-2.8-2.1-4.6-2.1c-1.8,0-3.4,0.7-4.6,2.1C1629.7,245.2,1629,247.2,1629,249.9z"/>
				<path class="st5" d="M1678.7,263.1h-7v-13.5c0-2.9-0.2-4.7-0.4-5.5c-0.3-0.8-0.8-1.5-1.5-1.9c-0.7-0.5-1.5-0.7-2.4-0.7
					c-1.2,0-2.3,0.3-3.3,1c-1,0.7-1.6,1.5-2,2.6s-0.5,3.1-0.5,6.1v12h-7v-26.4h6.5v3.9c2.3-3,5.2-4.5,8.7-4.5c1.5,0,2.9,0.3,4.2,0.8
					c1.3,0.6,2.2,1.3,2.9,2.1s1.1,1.8,1.4,2.9s0.4,2.7,0.4,4.7L1678.7,263.1L1678.7,263.1z"/>
				<path class="st5" d="M1685.8,263.1v-7h7v7H1685.8z"/>
			</g>
		</g>
	</g>
	<g>
		<rect x="435.2" y="82.1" class="st2" width="6.6" height="29.8"/>
		<rect x="423.6" y="93.7" class="st2" width="29.8" height="6.6"/>
	</g>
</g>
</svg>
